<svg width="86" height="122" viewBox="0 0 86 122" fill="none" xmlns="http://www.w3.org/2000/svg">
<g clip-path="url(#clip0_236_18)">
<path d="M35.7722 82.9412L34.4835 94.2563H5.67773L8.47171 82.9429L35.7722 82.9412ZM81.9071 82.9412L84.7011 94.2563H55.8936L54.6101 82.9412H81.9071ZM30.1946 69.2067V80.5184H9.07312L11.8671 69.2067H30.1946ZM57.7563 69.2067V80.5184H54.3334L54.3248 80.4634C53.1667 70.2515 37.2104 70.2463 36.0506 80.4634L36.0454 80.5184H32.626V69.2067H57.7563ZM78.5135 69.2067L81.3092 80.5184H60.1825V69.2067H78.5135ZM43.9754 55.4671V66.7805H12.4633L15.259 55.4671H43.9754ZM75.125 55.4671L77.9189 66.7805H46.4086V55.4671H75.125ZM30.1963 41.731V53.0443H15.8604L18.6544 41.731H30.1963ZM32.626 41.731H57.7563V53.0443H32.6243L32.626 41.731ZM71.7296 41.731L74.5235 53.0443H60.1842V41.731H71.7296ZM43.972 27.9948V39.3099H16.9L6.02312 28.4278V27.9948H43.972ZM84.3557 27.9948V28.4278L73.4788 39.3099H46.4086V27.9948H84.3557ZM6.02312 14.2569H30.1946V25.572H6.02312V14.2569ZM32.6243 14.2569H57.7546V25.572H32.6243V14.2569ZM60.1825 14.2569H84.3574V25.572H60.1825V14.2569ZM6.02312 0.522461H25.5088V11.8358H6.02312V0.522461ZM35.5368 0.522461H54.6771V11.8358H35.5351L35.5368 0.522461ZM64.7051 0.522461H84.3574V11.8358H64.7051V0.522461Z" fill="#FFBC19"/>
<path d="M8.71723 117.175C9.78774 117.175 10.6572 116.792 11.3634 116.045C12.0714 115.296 12.4357 114.326 12.4357 113.175C12.4357 112.022 12.0714 111.053 11.3634 110.306C11.0287 109.939 10.6195 109.648 10.1631 109.452C9.70665 109.257 9.21368 109.161 8.71723 109.172C7.64501 109.172 6.75664 109.556 6.0487 110.306C5.34247 111.053 4.99881 112.022 4.99881 113.175C4.99881 114.326 5.34247 115.296 6.0487 116.045C6.75664 116.792 7.64672 117.175 8.71723 117.175ZM8.71723 120.53C6.5745 120.53 4.79605 119.825 3.38188 118.389C1.96599 116.954 1.25977 115.215 1.25977 113.175C1.25977 111.134 1.96599 109.395 3.38188 107.96C4.79605 106.525 6.5745 105.817 8.71723 105.817C10.8582 105.817 12.6367 106.525 14.0526 107.96C15.4668 109.395 16.173 111.134 16.173 113.175C16.173 115.215 15.4668 116.954 14.0526 118.389C12.6367 119.823 10.8582 120.53 8.71723 120.53ZM18.436 120.248V106.101H24.7422C26.3179 106.101 27.5705 106.505 28.5001 107.333C29.428 108.163 29.8937 109.213 29.8937 110.527C29.8937 111.84 29.4297 112.911 28.5001 113.741C27.5705 114.569 26.3179 114.973 24.7405 114.973H22.0737V120.248H18.436ZM22.0737 111.983H24.4793C25.5275 111.983 26.2148 111.457 26.2148 110.567C26.2148 109.678 25.5498 109.173 24.4793 109.173H22.0737V111.983ZM31.7134 120.248V106.101H42.4631V109.294H35.3493V111.215H41.0077V114.285H35.3493V117.053H42.6246V120.248H31.7134ZM44.6849 120.248V106.101H55.1322V109.294H48.3226V120.248H44.6849ZM63.3973 117.175C64.4678 117.175 65.3373 116.792 66.0435 116.045C66.7514 115.296 67.1157 114.326 67.1157 113.175C67.1157 112.022 66.7514 111.053 66.0452 110.306C65.7103 109.939 65.3008 109.647 64.8441 109.452C64.3873 109.256 63.894 109.161 63.3973 109.172C62.3268 109.172 61.4384 109.556 60.7288 110.306C60.0225 111.053 59.6789 112.022 59.6789 113.175C59.6789 114.326 60.0225 115.296 60.7305 116.045C61.4367 116.792 62.3268 117.175 63.3973 117.175ZM63.3973 120.53C61.2546 120.53 59.4761 119.825 58.0619 118.389C56.6478 116.954 55.9398 115.215 55.9398 113.175C55.9398 111.134 56.6478 109.395 58.0619 107.96C59.4761 106.525 61.2546 105.817 63.3973 105.817C65.54 105.817 67.3185 106.525 68.7326 107.96C70.1468 109.395 70.8548 111.134 70.8548 113.175C70.8548 115.215 70.1468 116.954 68.7326 118.389C67.3185 119.823 65.54 120.53 63.3973 120.53ZM73.1161 120.248V106.101H76.7537V111.134H82.0891V106.101H85.7267V120.248H82.0891V114.368H76.7537V120.248H73.1161Z" fill="white"/>
</g>
<defs>
<clipPath id="clip0_236_18">
<rect width="85.9155" height="122" fill="white"/>
</clipPath>
</defs>
</svg>
