<svg width="170" height="171" viewBox="0 0 170 171" fill="none" xmlns="http://www.w3.org/2000/svg">
<g clip-path="url(#clip0_236_51)">
<path d="M120.185 36.7812L83.9075 85.1157L120.185 133.848H107.55C107.246 133.848 106.947 133.777 106.676 133.642C106.404 133.506 106.168 133.308 105.986 133.065L71.1011 86.489C70.8475 86.1501 70.7107 85.7384 70.7109 85.3151C70.7115 84.8921 70.8492 84.4804 71.1034 84.1424L106.13 37.5613C106.313 37.319 106.549 37.1227 106.82 36.9872C107.091 36.8518 107.39 36.7812 107.693 36.7812H120.185Z" fill="white"/>
<path d="M63.3568 133.218V120.918C63.3568 119.399 62.434 118.356 60.8553 118.356C59.2765 118.356 58.3537 119.458 58.3537 120.918V129.615C58.3537 132.116 56.7155 133.963 54.0938 133.963C51.5619 133.963 49.8047 132.176 49.8047 129.615V117.284H51.5922V129.615C51.5922 131.134 52.5454 132.176 54.0938 132.176C55.6725 132.176 56.5662 131.134 56.5662 129.615V120.918C56.5662 118.415 58.2336 116.568 60.8553 116.568C63.3871 116.568 65.1441 118.415 65.1441 120.918V133.218H63.3568Z" fill="white"/>
<path d="M49.8047 114.621V112.833H65.1441V114.621H49.8047Z" fill="white"/>
<path d="M49.8047 110.449V108.483L61.7186 100.502L49.8047 92.4889V90.5537H65.1441V92.3398H52.7539L64.8763 100.502L52.7539 108.663H65.1441V110.449H49.8047Z" fill="white"/>
<path d="M49.8047 88.1593V75.113C49.8047 72.6114 51.6818 70.7646 54.5412 70.7646C57.3703 70.7646 59.2473 72.6114 59.2473 75.113V86.3721H65.1441V88.1593H49.8047ZM57.4598 75.113C57.4598 73.5937 56.4474 72.5519 54.5412 72.5519C52.6349 72.5519 51.5922 73.5937 51.5922 75.113V86.3721H57.4598V75.113Z" fill="white"/>
<path d="M49.8047 68.8153V67.0278H63.3568V54.9648H65.1441V68.8153H49.8047Z" fill="white"/>
<path d="M49.8047 53.0205V36.6699H51.5922V51.2344H56.5662V37.5029H58.3537V51.2344H63.3568V36.6699H65.1441V53.0205H49.8047Z" fill="white"/>
<path d="M85 0.318359C38.0559 0.318359 0 38.3743 0 85.3184H4.70144C4.70144 40.9707 40.6524 5.01979 85 5.01979C129.348 5.01979 165.299 40.9707 165.299 85.3184H170C170 38.3743 131.944 0.318359 85 0.318359Z" fill="white"/>
<path d="M85 165.617C40.6524 165.617 4.70144 129.666 4.70144 85.3184H0C0 132.262 38.0559 170.318 85 170.318C131.944 170.318 170 132.262 170 85.3184H165.299C165.299 129.666 129.348 165.617 85 165.617Z" fill="white"/>
</g>
<defs>
<clipPath id="clip0_236_51">
<rect width="170" height="170" fill="white" transform="translate(0 0.318359)"/>
</clipPath>
</defs>
</svg>
