<?xml version="1.0" encoding="utf-8"?>

<svg viewBox="0 0 163 50" xmlns="http://www.w3.org/2000/svg" xmlns:xlink="http://www.w3.org/1999/xlink"><style>:root>svg{display:none}:root>svg:target{display:block}</style>
    <svg id="insta" viewBox="0 0 24 24" fill="none" xmlns="http://www.w3.org/2000/svg">
        <path d="M11.9375 7.06885C8.97456 7.06885 6.51953 9.48155 6.51953 12.4868C6.51953 15.4921 8.93223 17.9048 11.9375 17.9048C14.9428 17.9048 17.3555 15.4498 17.3555 12.4868C17.3555 9.52387 14.9005 7.06885 11.9375 7.06885ZM11.9375 15.9577C10.0328 15.9577 8.46662 14.3916 8.46662 12.4868C8.46662 10.5821 10.0328 9.01594 11.9375 9.01594C13.8423 9.01594 15.4084 10.5821 15.4084 12.4868C15.4084 14.3916 13.8423 15.9577 11.9375 15.9577Z" fill="currentColor"/>
        <path d="M17.5674 8.16938C18.2453 8.16938 18.7949 7.61981 18.7949 6.94187C18.7949 6.26393 18.2453 5.71436 17.5674 5.71436C16.8894 5.71436 16.3398 6.26393 16.3398 6.94187C16.3398 7.61981 16.8894 8.16938 17.5674 8.16938Z" fill="currentColor"/>
        <path d="M20.741 3.76719C19.6405 2.62433 18.0744 2.03174 16.2966 2.03174H7.57702C3.89448 2.03174 1.43945 4.48676 1.43945 8.1693V16.8466C1.43945 18.6667 2.03205 20.2328 3.21723 21.3757C4.36009 22.4762 5.8839 23.0264 7.61935 23.0264H16.2543C18.0744 23.0264 19.5982 22.4339 20.6987 21.3757C21.8416 20.2751 22.4342 18.709 22.4342 16.8889V8.1693C22.4342 6.39153 21.8416 4.86772 20.741 3.76719ZM20.4871 16.8889C20.4871 18.2011 20.1061 19.2593 19.3442 19.9788C18.5823 20.6984 17.5241 21.0794 16.2543 21.0794H7.61935C6.34951 21.0794 5.2913 20.6984 4.5294 19.9788C3.7675 19.2169 3.38654 18.1587 3.38654 16.8466V8.1693C3.38654 6.89946 3.7675 5.84126 4.5294 5.07936C5.24898 4.35978 6.34951 3.97883 7.61935 3.97883H16.3389C17.6088 3.97883 18.667 4.35978 19.4289 5.12169C20.1484 5.88359 20.5717 6.94179 20.5717 8.1693V16.8889H20.4871Z" fill="currentColor"/>
    </svg>

    <svg id="facebook" viewBox="0 0 18 24" fill="none" xmlns="http://www.w3.org/2000/svg">
        <path d="M14.1163 9.20276H10.8799V7.08017C10.8799 6.28303 11.4082 6.09719 11.7803 6.09719C12.1516 6.09719 14.0642 6.09719 14.0642 6.09719V2.59284L10.9188 2.58057C7.42717 2.58057 6.63258 5.19422 6.63258 6.86681V9.20276H4.61328V12.8138H6.63258C6.63258 17.448 6.63258 23.0318 6.63258 23.0318H10.8799C10.8799 23.0318 10.8799 17.393 10.8799 12.8138H13.7458L14.1163 9.20276Z" fill="currentColor"/>
    </svg>

    <svg id="twitter" viewBox="0 0 24 24" fill="none" xmlns="http://www.w3.org/2000/svg">
        <path d="M22.8937 6.58275C22.1269 6.9234 21.3021 7.15327 20.4363 7.2564C21.3199 6.72723 21.9981 5.88882 22.3177 4.88921C21.4909 5.37972 20.5756 5.73587 19.6007 5.9279C18.8204 5.09634 17.7083 4.57666 16.4778 4.57666C14.115 4.57666 12.1993 6.49241 12.1993 8.85528C12.1993 9.19056 12.2371 9.51695 12.31 9.83009C8.75409 9.65191 5.6012 7.94867 3.49097 5.35987C3.12279 5.99156 2.91176 6.72643 2.91176 7.51086C2.91176 8.99519 3.66707 10.3047 4.81511 11.0722C4.11394 11.0497 3.45393 10.8574 2.87722 10.5368C2.87684 10.5546 2.87684 10.5726 2.87684 10.591C2.87684 12.6636 4.35169 14.3929 6.30918 14.7863C5.95011 14.8838 5.57207 14.9363 5.1818 14.9363C4.90583 14.9363 4.63794 14.9097 4.37666 14.8595C4.92137 16.5592 6.50141 17.7963 8.37335 17.8308C6.90904 18.9785 5.06437 19.6625 3.05955 19.6625C2.71436 19.6625 2.37392 19.642 2.03906 19.6027C3.93288 20.8169 6.18163 21.5251 8.5978 21.5251C16.4679 21.5251 20.7711 15.0054 20.7711 9.35134C20.7711 9.16614 20.7674 8.98114 20.7591 8.79779C21.5948 8.19463 22.3206 7.44101 22.8937 6.58275Z" fill="currentColor"/>
    </svg>

    <svg id="logo" viewBox="0 0 56 61" fill="none" xmlns="http://www.w3.org/2000/svg">
        <path d="M52.0153 15L26.0077 0L0 15V45L52.0153 15Z" fill="currentColor"/>
        <path d="M55.5 45.7112L29.9923 60.4228L4.98544 46L55.5 16.8656L55.5 45.7112Z" fill="currentColor" stroke="currentColor"/>
    </svg>    
</svg>